<?xml version="1.0" encoding="utf-8"?>
<!-- Generator: Adobe Illustrator 14.0.0, SVG Export Plug-In . SVG Version: 6.00 Build 43363)  -->
<!DOCTYPE svg PUBLIC "-//W3C//DTD SVG 1.1//EN" "http://www.w3.org/Graphics/SVG/1.1/DTD/svg11.dtd">
<svg version="1.1" id="Layer_1" xmlns="http://www.w3.org/2000/svg" xmlns:xlink="http://www.w3.org/1999/xlink" x="0px" y="0px"
	 width="281.875px" height="286.25px" viewBox="0 0 281.875 286.25" enable-background="new 0 0 281.875 286.25"
	 xml:space="preserve">
<g>
	<path fill="#71E271" d="M160,81.154c49.744-60.37,117.512-77.933,117.512-77.933S190.994,6.409,141.25,66.779
		c-28.671,34.796-14.388,74.776-14.388,74.776S131.329,115.95,160,81.154z"/>
	<path fill="#00CA3E" d="M169.352,97.243c-15.939,24.421-22.234,43.886-24.697,54.599l-0.002,0c0,0-0.008,0.038-0.023,0.11
		c-0.897,3.924-1.279,6.651-1.43,8.002c-1.761,11.316-1.927,34.234,2.25,47.419c-6.244-4.514-14.422-8.648-19.358-10.4
		c-0.767-0.31-2.335-0.894-4.694-1.548c-0.043-0.012-0.066-0.019-0.066-0.019l-0.001,0.001c-6.442-1.779-18.674-4.039-36.345-2.572
		c-47.399,3.935-79.656,31.707-79.656,31.707s50.655,15.165,79.384,6.026c12.22-3.888,26.558-17.336,34.852-25.86
		c6.089,2.484,15.386,6.916,23.364,13.427c5.125,4.183,11.949,11.861,18.084,19.282c13.387,21.287,27.112,45.081,27.112,45.081
		s-22.688-56.635-27.471-81.635c-3.183-16.634-2.326-33.552-1.16-44.303c18.817-5.336,49.488-15.567,64.667-30.208
		C259.848,91.931,277.512,6.779,277.512,6.779S212.105,31.736,169.352,97.243z"/>
	<path fill="#71E271" d="M120.97,182.916c0,0-17.257-19.197-44.158-13.918c-46.673,9.158-73.387,54.518-73.387,54.518
		s28.984-31.173,75.656-40.332C105.983,177.904,120.97,182.916,120.97,182.916z"/>
</g>
</svg>
